<mxfile host="drawio-plugin" modified="2024-03-14T08:55:52.184Z" agent="5.0 (Windows NT 10.0; Win64; x64) AppleWebKit/537.36 (KHTML, like Gecko) Chrome/111.0.0.0 Safari/537.36" etag="JIxHWK82w7uLLkK3PwZu" version="20.5.3" type="embed"><diagram id="VeFOgQlXZSEfIR81UXnC" name="Page-1"><mxGraphModel dx="2013" dy="831" grid="1" gridSize="10" guides="1" tooltips="1" connect="1" arrows="1" fold="1" page="0" pageScale="1" pageWidth="1169" pageHeight="827" background="none" math="0" shadow="0"><root><mxCell id="0"/><mxCell id="1" parent="0"/><mxCell id="node10" value="&lt;p style=&quot;margin:0px;margin-top:4px;text-align:center;&quot;&gt;&lt;b&gt;ArabicPanel&lt;/b&gt;&lt;/p&gt;&lt;hr size=&quot;1&quot;/&gt;&lt;p style=&quot;margin:0 0 0 4px;line-height:1.6;&quot;&gt;+ ArabicPanel(Chronometer): &lt;/p&gt;" style="verticalAlign=top;align=left;overflow=fill;fontSize=14;fontFamily=Helvetica;html=1;rounded=0;shadow=0;comic=0;labelBackgroundColor=none;strokeWidth=1;" parent="1" vertex="1"><mxGeometry x="-130" y="1860" width="218" height="68" as="geometry"/></mxCell><mxCell id="hneoz34eEpc-__6njNPn-13" style="edgeStyle=orthogonalEdgeStyle;rounded=0;orthogonalLoop=1;jettySize=auto;html=1;endArrow=block;endFill=0;endSize=12;" parent="1" source="node11" target="hneoz34eEpc-__6njNPn-5" edge="1"><mxGeometry relative="1" as="geometry"/></mxCell><mxCell id="node11" value="&lt;p style=&quot;margin:0px;margin-top:4px;text-align:center;&quot;&gt;&lt;b&gt;ChronoApp&lt;/b&gt;&lt;/p&gt;&lt;hr size=&quot;1&quot;/&gt;&lt;p style=&quot;margin:0 0 0 4px;line-height:1.6;&quot;&gt;+ ChronoApp(LinkedList&amp;lt;ChronoPanel&amp;gt;): &lt;br/&gt;+ ChronoApp(ChronoPanel): &lt;/p&gt;&lt;hr size=&quot;1&quot;/&gt;&lt;p style=&quot;margin:0 0 0 4px;line-height:1.6;&quot;&gt;- initialize(): void&lt;/p&gt;" style="verticalAlign=top;align=left;overflow=fill;fontSize=14;fontFamily=Helvetica;html=1;rounded=0;shadow=0;comic=0;labelBackgroundColor=none;strokeWidth=1;" parent="1" vertex="1"><mxGeometry x="-810" y="598" width="297" height="121" as="geometry"/></mxCell><mxCell id="hneoz34eEpc-__6njNPn-7" style="edgeStyle=orthogonalEdgeStyle;rounded=0;orthogonalLoop=1;jettySize=auto;html=1;endSize=12;endArrow=open;endFill=0;" parent="1" source="node3" target="node9" edge="1"><mxGeometry relative="1" as="geometry"><Array as="points"><mxPoint x="250" y="950"/><mxPoint x="250" y="950"/></Array></mxGeometry></mxCell><mxCell id="hneoz34eEpc-__6njNPn-12" style="edgeStyle=orthogonalEdgeStyle;rounded=0;orthogonalLoop=1;jettySize=auto;html=1;endArrow=block;endFill=0;endSize=12;" parent="1" source="node3" target="hneoz34eEpc-__6njNPn-1" edge="1"><mxGeometry relative="1" as="geometry"><Array as="points"><mxPoint x="350" y="981"/><mxPoint x="455" y="981"/></Array></mxGeometry></mxCell><mxCell id="node3" value="&lt;p style=&quot;margin:0px;margin-top:4px;text-align:center;&quot;&gt;&lt;b&gt;&lt;i&gt;ChronoPanel&lt;/i&gt;&lt;/b&gt;&lt;/p&gt;&lt;hr size=&quot;1&quot;&gt;&lt;p style=&quot;margin:0 0 0 4px;line-height:1.6;&quot;&gt;+ ChronoPanel(Chronometer): &lt;/p&gt;&lt;hr size=&quot;1&quot;&gt;&lt;p style=&quot;margin:0 0 0 4px;line-height:1.6;&quot;&gt;- &lt;u&gt;HEIGHT: int&lt;/u&gt;&lt;br&gt;- &lt;u&gt;WIDTH: int&lt;br&gt;&lt;/u&gt;- chronometer: Chronometer&lt;/p&gt;&lt;hr size=&quot;1&quot;&gt;&lt;p style=&quot;margin:0 0 0 4px;line-height:1.6;&quot;&gt;+ seconds(): int&lt;br&gt;+ update(): void&lt;br&gt;# id(): int&lt;br&gt;&lt;i&gt;# updateChronometer(): void&lt;br&gt;&lt;/i&gt;+ hours(): int&lt;br&gt;+ minutes(): int&lt;/p&gt;" style="verticalAlign=top;align=left;overflow=fill;fontSize=14;fontFamily=Helvetica;html=1;rounded=0;shadow=0;comic=0;labelBackgroundColor=none;strokeWidth=1;fontStyle=0" parent="1" vertex="1"><mxGeometry x="198" y="1020" width="225" height="291" as="geometry"/></mxCell><mxCell id="node9" value="&lt;p style=&quot;margin:0px;margin-top:4px;text-align:center;&quot;&gt;&lt;b&gt;Chronometer&lt;/b&gt;&lt;/p&gt;&lt;hr size=&quot;1&quot;&gt;&lt;p style=&quot;margin:0 0 0 4px;line-height:1.6;&quot;&gt;+ Chronometer(): &lt;/p&gt;&lt;hr size=&quot;1&quot;&gt;&lt;p style=&quot;margin:0 0 0 4px;line-height:1.6;&quot;&gt;- &lt;u&gt;lastId: int&lt;/u&gt;&lt;br&gt;- hasChanged: boolean&lt;br&gt;- timer: Timer&lt;br&gt;- observers: LinkedList&amp;lt;Observer&amp;gt;&lt;br&gt;- isRunning: boolean&lt;br&gt;- seconds: int&lt;br&gt;- id: int&lt;br&gt;- currentTask: TimerTask&lt;/p&gt;&lt;hr size=&quot;1&quot;&gt;&lt;p style=&quot;margin:0 0 0 4px;line-height:1.6;&quot;&gt;+ getId(): int&lt;br&gt;+ start(): void&lt;br&gt;+ reset(): void&lt;br&gt;+ hasChanged(): boolean&lt;br&gt;+ notifyObservers(): void&lt;br&gt;+ setIsRunning(boolean): void&lt;br&gt;+ stop(): void&lt;br&gt;+ setSeconds(int): void&lt;br&gt;+ setChanged(): void&lt;br&gt;+ deleteObserver(Observer): void&lt;br&gt;+ getIsRunning(): boolean&lt;br&gt;+ getSeconds(): int&lt;br&gt;+ clearChanged(): void&lt;br&gt;+ addObserver(Observer): void&lt;br&gt;+ deleteObservers(): void&lt;/p&gt;" style="verticalAlign=top;align=left;overflow=fill;fontSize=14;fontFamily=Helvetica;html=1;rounded=0;shadow=0;comic=0;labelBackgroundColor=none;strokeWidth=1;" parent="1" vertex="1"><mxGeometry x="24" y="302" width="253" height="617" as="geometry"/></mxCell><mxCell id="hneoz34eEpc-__6njNPn-10" style="edgeStyle=orthogonalEdgeStyle;rounded=0;orthogonalLoop=1;jettySize=auto;html=1;endArrow=open;endFill=0;endSize=12;" parent="1" source="node8" target="node9" edge="1"><mxGeometry relative="1" as="geometry"><Array as="points"><mxPoint x="-20" y="700"/><mxPoint x="-20" y="700"/></Array></mxGeometry></mxCell><mxCell id="hneoz34eEpc-__6njNPn-14" style="edgeStyle=orthogonalEdgeStyle;rounded=0;orthogonalLoop=1;jettySize=auto;html=1;endArrow=block;endFill=0;endSize=12;" parent="1" source="node8" target="hneoz34eEpc-__6njNPn-5" edge="1"><mxGeometry relative="1" as="geometry"/></mxCell><mxCell id="node8" value="&lt;p style=&quot;margin:0px;margin-top:4px;text-align:center;&quot;&gt;&lt;b&gt;ControlApp&lt;/b&gt;&lt;/p&gt;&lt;hr size=&quot;1&quot;/&gt;&lt;p style=&quot;margin:0 0 0 4px;line-height:1.6;&quot;&gt;+ ControlApp(int): &lt;/p&gt;&lt;hr size=&quot;1&quot;/&gt;&lt;p style=&quot;margin:0 0 0 4px;line-height:1.6;&quot;&gt;- chronometerList: LinkedList&amp;lt;Chronometer&amp;gt;&lt;br/&gt;- chronometersCount: int&lt;/p&gt;&lt;hr size=&quot;1&quot;/&gt;&lt;p style=&quot;margin:0 0 0 4px;line-height:1.6;&quot;&gt;- handleArabicDialButton(): void&lt;br/&gt;- handleRomanDialButton(): void&lt;br/&gt;- handleNumericButton(): void&lt;/p&gt;" style="verticalAlign=top;align=left;overflow=fill;fontSize=14;fontFamily=Helvetica;html=1;rounded=0;shadow=0;comic=0;labelBackgroundColor=none;strokeWidth=1;" parent="1" vertex="1"><mxGeometry x="-440" y="598" width="299" height="202" as="geometry"/></mxCell><mxCell id="hneoz34eEpc-__6njNPn-11" style="edgeStyle=orthogonalEdgeStyle;rounded=0;orthogonalLoop=1;jettySize=auto;html=1;endArrow=block;endFill=0;endSize=12;" parent="1" source="node4" target="hneoz34eEpc-__6njNPn-1" edge="1"><mxGeometry relative="1" as="geometry"><Array as="points"><mxPoint x="560" y="981"/><mxPoint x="455" y="981"/></Array></mxGeometry></mxCell><mxCell id="node4" value="&lt;p style=&quot;margin:0px;margin-top:4px;text-align:center;&quot;&gt;&lt;b&gt;ControlPanel&lt;/b&gt;&lt;/p&gt;&lt;hr size=&quot;1&quot;&gt;&lt;p style=&quot;margin:0 0 0 4px;line-height:1.6;&quot;&gt;+ ControlPanel(Chronometer): &lt;/p&gt;&lt;hr size=&quot;1&quot;&gt;&lt;p style=&quot;margin:0 0 0 4px;line-height:1.6;&quot;&gt;- chronometer: Chronometer&lt;br&gt;&lt;/p&gt;&lt;hr size=&quot;1&quot;&gt;&lt;p style=&quot;margin:0 0 0 4px;line-height:1.6;&quot;&gt;-&amp;nbsp;&lt;span style=&quot;background-color: initial;&quot;&gt;addButton&lt;/span&gt;&lt;span style=&quot;background-color: initial;&quot;&gt;(&lt;/span&gt;&lt;span style=&quot;background-color: initial;&quot;&gt;String text&lt;/span&gt;&lt;span style=&quot;background-color: initial;&quot;&gt;, &lt;/span&gt;&lt;span style=&quot;background-color: initial;&quot;&gt;Runnable listener&lt;/span&gt;&lt;span style=&quot;background-color: initial;&quot;&gt;): void&lt;/span&gt;&lt;/p&gt;&lt;p style=&quot;margin:0 0 0 4px;line-height:1.6;&quot;&gt;- handleInitialiseButton(): void&lt;br&gt;- handleRomanDialButton(): void&lt;br&gt;- handleStartButton(): void&lt;br&gt;- handleStopButton(): void&lt;br&gt;- handleArabicDialButton(): void&lt;br&gt;- handleNumericButton(): void&lt;/p&gt;" style="verticalAlign=top;align=left;overflow=fill;fontSize=14;fontFamily=Helvetica;html=1;rounded=0;shadow=0;comic=0;labelBackgroundColor=none;strokeWidth=1;" parent="1" vertex="1"><mxGeometry x="480" y="1020" width="310" height="280" as="geometry"/></mxCell><mxCell id="node7" value="&lt;p style=&quot;margin:0px;margin-top:4px;text-align:center;&quot;&gt;&lt;b&gt;&lt;i&gt;DialPanel&lt;/i&gt;&lt;/b&gt;&lt;/p&gt;&lt;hr size=&quot;1&quot;&gt;&lt;p style=&quot;margin:0 0 0 4px;line-height:1.6;&quot;&gt;~ DialPanel(Chronometer, Image, Color, Color, Color): &lt;/p&gt;&lt;hr size=&quot;1&quot;&gt;&lt;p style=&quot;margin:0 0 0 4px;line-height:1.6;&quot;&gt;~ image: Image&lt;br&gt;- minuteHandColor: Color&lt;br&gt;- secondHandColor: Color&lt;br&gt;- secondAngle: int&lt;br&gt;- hourAngle: int&lt;br&gt;- minuteAngle: int&lt;br&gt;- hourHandColor: Color&lt;/p&gt;&lt;hr size=&quot;1&quot;&gt;&lt;p style=&quot;margin:0 0 0 4px;line-height:1.6;&quot;&gt;# updateChronometer(): void&lt;br&gt;- drawSecondHand(Graphics): void&lt;br&gt;- drawMinuteHand(Graphics): void&lt;br&gt;- drawHourHand(Graphics): void&lt;/p&gt;" style="verticalAlign=top;align=left;overflow=fill;fontSize=14;fontFamily=Helvetica;html=1;rounded=0;shadow=0;comic=0;labelBackgroundColor=none;strokeWidth=1;" parent="1" vertex="1"><mxGeometry x="-90" y="1416.5" width="375" height="333.5" as="geometry"/></mxCell><mxCell id="node5" value="&lt;p style=&quot;margin:0px;margin-top:4px;text-align:center;&quot;&gt;&lt;b&gt;NumericPanel&lt;/b&gt;&lt;/p&gt;&lt;hr size=&quot;1&quot;/&gt;&lt;p style=&quot;margin:0 0 0 4px;line-height:1.6;&quot;&gt;+ NumericPanel(Chronometer): &lt;/p&gt;&lt;hr size=&quot;1&quot;/&gt;&lt;p style=&quot;margin:0 0 0 4px;line-height:1.6;&quot;&gt;- chronoLabel: JLabel&lt;/p&gt;&lt;hr size=&quot;1&quot;/&gt;&lt;p style=&quot;margin:0 0 0 4px;line-height:1.6;&quot;&gt;# updateChronometer(): void&lt;/p&gt;" style="verticalAlign=top;align=left;overflow=fill;fontSize=14;fontFamily=Helvetica;html=1;rounded=0;shadow=0;comic=0;labelBackgroundColor=none;strokeWidth=1;" parent="1" vertex="1"><mxGeometry x="340" y="1416.5" width="229" height="143.5" as="geometry"/></mxCell><mxCell id="node6" value="&lt;p style=&quot;margin:0px;margin-top:4px;text-align:center;&quot;&gt;&lt;i&gt;&amp;lt;&amp;lt;interface&amp;gt;&amp;gt;&lt;/i&gt;&lt;br/&gt;&lt;b&gt;Observer&lt;/b&gt;&lt;/p&gt;&lt;hr size=&quot;1&quot;/&gt;&lt;p style=&quot;margin:0 0 0 4px;line-height:1.6;&quot;&gt;+ update(): void&lt;/p&gt;" style="verticalAlign=top;align=left;overflow=fill;fontSize=14;fontFamily=Helvetica;html=1;rounded=0;shadow=0;comic=0;labelBackgroundColor=none;strokeWidth=1;" parent="1" vertex="1"><mxGeometry x="198" y="40" width="133" height="79" as="geometry"/></mxCell><mxCell id="node2" value="&lt;p style=&quot;margin:0px;margin-top:4px;text-align:center;&quot;&gt;&lt;b&gt;RomanPanel&lt;/b&gt;&lt;/p&gt;&lt;hr size=&quot;1&quot;/&gt;&lt;p style=&quot;margin:0 0 0 4px;line-height:1.6;&quot;&gt;+ RomanPanel(Chronometer): &lt;/p&gt;" style="verticalAlign=top;align=left;overflow=fill;fontSize=14;fontFamily=Helvetica;html=1;rounded=0;shadow=0;comic=0;labelBackgroundColor=none;strokeWidth=1;" parent="1" vertex="1"><mxGeometry x="110" y="1860" width="220" height="68" as="geometry"/></mxCell><mxCell id="node1" value="&lt;p style=&quot;margin:0px;margin-top:4px;text-align:center;&quot;&gt;&lt;i&gt;&amp;lt;&amp;lt;interface&amp;gt;&amp;gt;&lt;/i&gt;&lt;br/&gt;&lt;b&gt;Subject&lt;/b&gt;&lt;/p&gt;&lt;hr size=&quot;1&quot;/&gt;&lt;p style=&quot;margin:0 0 0 4px;line-height:1.6;&quot;&gt;+ deleteObservers(): void&lt;br/&gt;+ clearChanged(): void&lt;br/&gt;+ addObserver(Observer): void&lt;br/&gt;+ hasChanged(): boolean&lt;br/&gt;+ setChanged(): void&lt;br/&gt;+ deleteObserver(Observer): void&lt;br/&gt;+ notifyObservers(): void&lt;/p&gt;" style="verticalAlign=top;align=left;overflow=fill;fontSize=14;fontFamily=Helvetica;html=1;rounded=0;shadow=0;comic=0;labelBackgroundColor=none;strokeWidth=1;" parent="1" vertex="1"><mxGeometry x="-70" y="-13" width="240" height="207" as="geometry"/></mxCell><mxCell id="edge3" value="" style="html=1;rounded=1;edgeStyle=orthogonalEdgeStyle;dashed=0;startArrow=none;endArrow=block;endSize=12;strokeColor=#000000;exitX=0.500;exitY=0.000;exitDx=0;exitDy=0;entryX=0.500;entryY=1.000;entryDx=0;entryDy=0;endFill=0;" parent="1" source="node10" target="node7" edge="1"><mxGeometry width="50" height="50" relative="1" as="geometry"><Array as="points"><mxPoint x="-21" y="1800"/><mxPoint x="98" y="1800"/></Array></mxGeometry></mxCell><mxCell id="edge1" value="" style="html=1;rounded=1;edgeStyle=orthogonalEdgeStyle;dashed=1;startArrow=none;endArrow=open;endSize=12;strokeColor=#000000;endFill=0;dashPattern=12 12;" parent="1" source="node3" target="node6" edge="1"><mxGeometry width="50" height="50" relative="1" as="geometry"><Array as="points"><mxPoint x="311" y="100"/><mxPoint x="311" y="100"/></Array></mxGeometry></mxCell><mxCell id="edge9" value="" style="html=1;rounded=1;edgeStyle=orthogonalEdgeStyle;dashed=0;startArrow=diamondThinstartSize=12;endArrow=open;endSize=12;strokeColor=#595959;endFill=0;" parent="1" source="node9" target="node6" edge="1"><mxGeometry width="50" height="50" relative="1" as="geometry"><Array as="points"><mxPoint x="240" y="140"/><mxPoint x="240" y="140"/></Array></mxGeometry></mxCell><mxCell id="label54" value="1" style="edgeLabel;resizable=0;html=1;align=left;verticalAlign=top;strokeColor=default;" parent="edge9" vertex="1" connectable="0"><mxGeometry x="220" y="276" as="geometry"/></mxCell><mxCell id="label58" value="*" style="edgeLabel;resizable=0;html=1;align=left;verticalAlign=top;strokeColor=default;" parent="edge9" vertex="1" connectable="0"><mxGeometry x="220" y="120" as="geometry"/></mxCell><mxCell id="edge4" value="" style="html=1;rounded=1;edgeStyle=orthogonalEdgeStyle;dashed=1;startArrow=none;endArrow=open;endSize=12;strokeColor=#000000;entryX=0.500;entryY=1.000;entryDx=0;entryDy=0;dashPattern=12 12;endFill=0;" parent="1" source="node9" target="node1" edge="1"><mxGeometry width="50" height="50" relative="1" as="geometry"><Array as="points"><mxPoint x="50" y="290"/><mxPoint x="50" y="290"/></Array></mxGeometry></mxCell><mxCell id="edge5" value="" style="html=1;rounded=1;edgeStyle=orthogonalEdgeStyle;dashed=0;startArrow=none;endArrow=block;endSize=12;strokeColor=#000000;exitX=0.500;exitY=0.000;exitDx=0;exitDy=0;entryX=0.500;entryY=1.000;entryDx=0;entryDy=0;endFill=0;" parent="1" source="node7" target="node3" edge="1"><mxGeometry width="50" height="50" relative="1" as="geometry"><Array as="points"><mxPoint x="98" y="1360"/><mxPoint x="310" y="1360"/></Array></mxGeometry></mxCell><mxCell id="edge0" value="" style="html=1;rounded=1;edgeStyle=orthogonalEdgeStyle;dashed=0;startArrow=none;endArrow=block;endSize=12;strokeColor=#000000;exitX=0.500;exitY=0.000;exitDx=0;exitDy=0;entryX=0.500;entryY=1.000;entryDx=0;entryDy=0;endFill=0;" parent="1" source="node5" target="node3" edge="1"><mxGeometry width="50" height="50" relative="1" as="geometry"><Array as="points"><mxPoint x="454" y="1360"/><mxPoint x="310" y="1360"/></Array></mxGeometry></mxCell><mxCell id="edge2" value="" style="html=1;rounded=1;edgeStyle=orthogonalEdgeStyle;dashed=0;startArrow=none;endArrow=block;endSize=12;strokeColor=#000000;exitX=0.500;exitY=0.001;exitDx=0;exitDy=0;entryX=0.500;entryY=1.000;entryDx=0;entryDy=0;endFill=0;" parent="1" source="node2" target="node7" edge="1"><mxGeometry width="50" height="50" relative="1" as="geometry"><Array as="points"><mxPoint x="220" y="1800"/><mxPoint x="98" y="1800"/></Array></mxGeometry></mxCell><mxCell id="hneoz34eEpc-__6njNPn-1" value="&lt;font style=&quot;font-size: 14px;&quot;&gt;&lt;b style=&quot;font-size: 14px;&quot;&gt;JPanel&lt;/b&gt;&lt;/font&gt;" style="swimlane;fontStyle=0;childLayout=stackLayout;horizontal=1;startSize=26;fillColor=none;horizontalStack=0;resizeParent=1;resizeParentMax=0;resizeLast=0;collapsible=1;marginBottom=0;whiteSpace=wrap;html=1;fontSize=14;" parent="1" vertex="1"><mxGeometry x="384.5" y="880" width="140" height="52" as="geometry"/></mxCell><mxCell id="hneoz34eEpc-__6njNPn-5" value="&lt;font style=&quot;font-size: 14px;&quot;&gt;&lt;b&gt;JFrame&lt;/b&gt;&lt;/font&gt;" style="swimlane;fontStyle=0;childLayout=stackLayout;horizontal=1;startSize=26;fillColor=none;horizontalStack=0;resizeParent=1;resizeParentMax=0;resizeLast=0;collapsible=1;marginBottom=0;whiteSpace=wrap;html=1;" parent="1" vertex="1"><mxGeometry x="-540" y="440" width="140" height="52" as="geometry"/></mxCell><mxCell id="hneoz34eEpc-__6njNPn-8" value="*" style="text;html=1;align=center;verticalAlign=middle;resizable=0;points=[];autosize=1;strokeColor=none;fillColor=none;" parent="1" vertex="1"><mxGeometry x="220" y="990" width="30" height="30" as="geometry"/></mxCell><mxCell id="hneoz34eEpc-__6njNPn-9" value="1" style="text;html=1;align=center;verticalAlign=middle;resizable=0;points=[];autosize=1;strokeColor=none;fillColor=none;" parent="1" vertex="1"><mxGeometry x="220" y="919" width="30" height="30" as="geometry"/></mxCell><mxCell id="hneoz34eEpc-__6njNPn-15" value="1..9" style="text;html=1;align=center;verticalAlign=middle;resizable=0;points=[];autosize=1;strokeColor=none;fillColor=none;" parent="1" vertex="1"><mxGeometry x="-16" y="670" width="40" height="30" as="geometry"/></mxCell><mxCell id="hneoz34eEpc-__6njNPn-16" value="1" style="text;html=1;align=center;verticalAlign=middle;resizable=0;points=[];autosize=1;strokeColor=none;fillColor=none;" parent="1" vertex="1"><mxGeometry x="-141" y="670" width="30" height="30" as="geometry"/></mxCell><mxCell id="kPrQgQTAk8PmuLy0jazs-1" value="possède&amp;nbsp;▶" style="text;html=1;align=center;verticalAlign=middle;resizable=0;points=[];autosize=1;strokeColor=none;fillColor=none;" parent="1" vertex="1"><mxGeometry x="-100" y="670" width="80" height="30" as="geometry"/></mxCell><mxCell id="kPrQgQTAk8PmuLy0jazs-2" value="est observé par&amp;nbsp;▲" style="text;html=1;align=center;verticalAlign=middle;resizable=0;points=[];autosize=1;strokeColor=none;fillColor=none;" parent="1" vertex="1"><mxGeometry x="120" y="206" width="120" height="30" as="geometry"/></mxCell><mxCell id="kPrQgQTAk8PmuLy0jazs-3" value="affiche ▲&amp;nbsp;" style="text;html=1;align=center;verticalAlign=middle;resizable=0;points=[];autosize=1;strokeColor=none;fillColor=none;" parent="1" vertex="1"><mxGeometry x="180" y="954" width="80" height="30" as="geometry"/></mxCell></root></mxGraphModel></diagram></mxfile>